<?xml version="1.0" encoding="UTF-8" standalone="no"?>
<!-- Created with Inkscape (http://www.inkscape.org/) -->

<svg
   version="1.1"
   id="svg836"
   width="344"
   height="348.66788"
   viewBox="0 0 344 348.66788"
   sodipodi:docname="contenedor.svg"
   inkscape:version="1.1.2 (b8e25be833, 2022-02-05)"
   xmlns:inkscape="http://www.inkscape.org/namespaces/inkscape"
   xmlns:sodipodi="http://sodipodi.sourceforge.net/DTD/sodipodi-0.dtd"
   xmlns="http://www.w3.org/2000/svg"
   xmlns:svg="http://www.w3.org/2000/svg">
  <defs
     id="defs840" />
  <sodipodi:namedview
     id="namedview838"
     pagecolor="#505050"
     bordercolor="#ffffff"
     borderopacity="1"
     inkscape:pageshadow="0"
     inkscape:pageopacity="0"
     inkscape:pagecheckerboard="1"
     showgrid="false"
     inkscape:zoom="1.3585366"
     inkscape:cx="194.69479"
     inkscape:cy="164.8833"
     inkscape:window-width="1366"
     inkscape:window-height="705"
     inkscape:window-x="-8"
     inkscape:window-y="-8"
     inkscape:window-maximized="1"
     inkscape:current-layer="g842"
     fit-margin-top="0"
     fit-margin-left="0"
     fit-margin-right="0"
     fit-margin-bottom="0"
     height="349.66788px" />
  <g
     inkscape:groupmode="layer"
     inkscape:label="Image"
     id="g842"
     transform="translate(-94.24978,-150.79047)">
    <path
       style="fill:#000000"
       d="m 142.63374,498.24745 c -13.54115,-3.30683 -22.05128,-12.65297 -24.33467,-26.72523 -0.67662,-4.16992 -1.03634,-55.43181 -1.04129,-148.38708 l -0.008,-142.01631 -11.5,-11.46738 c -10.56007,-10.53012 -11.5,-11.77212 -11.5,-15.19591 V 150.727 l 15.2976,0.13391 c 8.12632,0.0711 18.13843,0.28141 19.55567,-1.16846 65.59676,0.48472 78.453,-1.91825 95.04486,-0.60396 0.41679,0.25759 38.07272,0.60214 83.67984,0.76566 45.60712,0.16351 93.60953,0.42565 106.67203,0.58253 l 23.75,0.28523 v 3.48294 c 0,3.34999 -0.45499,3.77809 -11.9192,11.21477 l -11.9192,7.73183 -0.3308,151 c -0.30886,140.98344 -0.4475,151.34169 -2.09012,156.15095 -2.54875,7.4622 -7.59044,14.37331 -12.24068,16.7794 -3.97635,2.05742 -4.73302,2.07067 -128,2.24239 -96.26203,0.1341 -125.14453,-0.10676 -129.11649,-1.07674 z m -8.17525,-6.27219 c -0.94819,-0.38046 -1.00177,-0.86769 -0.20144,-1.83203 1.80032,-2.16926 -0.95207,-3.00599 -2.85278,-0.86725 -0.90972,1.02365 -1.00154,1.3019 -0.20404,0.61833 1.9418,-1.66441 3.58283,-1.58981 2.18112,0.0992 -1.17645,1.41754 -0.53149,2.71146 1.28555,2.57904 0.59583,-0.0434 0.50205,-0.31218 -0.20841,-0.59724 z m 268.40706,-1.90856 c 0.1768,-1.20466 -0.0732,-1.28015 -1.1846,-0.35775 -0.77479,0.64301 -1.14359,1.59806 -0.81957,2.12234 0.71945,1.16409 1.70119,0.29971 2.00417,-1.76459 z m 6.73402,-8.88322 c 0.30982,-0.80739 0.22638,-1.67622 -0.18543,-1.93073 -0.41181,-0.25451 -0.81419,0.40608 -0.89418,1.46798 -0.17299,2.29656 0.29838,2.4986 1.07961,0.46275 z m 0.33377,-16.71953 c -0.31922,-0.79773 -0.55618,-0.56078 -0.60416,0.60417 -0.0434,1.05416 0.19293,1.64479 0.52522,1.3125 0.33229,-0.33229 0.36781,-1.1948 0.0789,-1.91667 z M 181.9794,454.04728 c -0.33229,-0.33229 -1.1948,-0.36781 -1.91667,-0.0789 -0.79773,0.31922 -0.56078,0.55618 0.60417,0.60416 1.05416,0.0434 1.64479,-0.19293 1.3125,-0.52522 z m 64,0 c -0.33229,-0.33229 -1.1948,-0.36781 -1.91667,-0.0789 -0.79773,0.31922 -0.56078,0.55618 0.60417,0.60416 1.05416,0.0434 1.64479,-0.19293 1.3125,-0.52522 z m 64,0 c -0.33229,-0.33229 -1.1948,-0.36781 -1.91667,-0.0789 -0.79773,0.31922 -0.56078,0.55618 0.60417,0.60416 1.05416,0.0434 1.64479,-0.19293 1.3125,-0.52522 z m -142.47917,-1.05811 c -0.6875,-0.27741 -1.8125,-0.27741 -2.5,0 -0.6875,0.27741 -0.125,0.50439 1.25,0.50439 1.375,0 1.9375,-0.22698 1.25,-0.50439 z m 9.75,-0.17105 c 0,-0.45834 -0.675,-0.83334 -1.5,-0.83334 -0.825,0 -1.5,0.375 -1.5,0.83334 0,0.45833 0.675,0.83333 1.5,0.83333 0.825,0 1.5,-0.375 1.5,-0.83333 z m 53.72917,0.22916 c -0.33229,-0.33229 -1.1948,-0.36781 -1.91667,-0.0789 -0.79773,0.31922 -0.56078,0.55618 0.60417,0.60416 1.05416,0.0434 1.64479,-0.19293 1.3125,-0.52522 z m 79.77083,-1.39583 c -2.75248,-1.18278 -3.731,-1.18278 -3,0 0.33992,0.55 1.60398,0.96837 2.80902,0.92971 2.11236,-0.0678 2.11922,-0.10112 0.19098,-0.92971 z m -66.77083,-0.60417 c -0.33229,-0.33229 -1.1948,-0.36781 -1.91667,-0.0789 -0.79773,0.31922 -0.56078,0.55618 0.60417,0.60416 1.05416,0.0434 1.64479,-0.19293 1.3125,-0.52522 z m 106.27083,-0.74281 c -2.74461,-1.44641 -3.55322,-1.35717 -2.54112,0.28045 0.36254,0.58659 1.6451,1.0599 2.85014,1.05179 2.10129,-0.0141 2.08863,-0.0687 -0.30902,-1.33224 z m 22.54112,0.28045 c 1.07627,-1.74144 -0.14952,-2.11024 -1.52106,-0.45764 -0.78875,0.95039 -0.86462,1.52417 -0.20152,1.52417 0.58488,0 1.36004,-0.47994 1.72258,-1.06653 z m -192.0168,-1.93347 c 1.8467,0 3.65472,-0.48068 4.01781,-1.06817 0.3631,-0.5875 1.27809,-0.83106 2.03334,-0.54124 1.15894,0.44472 1.37913,-16.63087 1.41144,-109.45714 0.0356,-102.16051 -0.0841,-110.21345 -1.6824,-113.20876 -0.94637,-1.77358 -1.73954,-3.67469 -1.76259,-4.22469 -0.0231,-0.55 -1.39192,-1.07959 -3.04192,-1.17686 l -3,-0.17686 3,0.71523 3,0.71524 -2.5,0.69797 c -3.54452,0.98959 -5.21824,0.88741 -4.5,-0.27472 0.33992,-0.55 0.14148,-1 -0.44098,-1 -0.58246,0 -1.05902,0.47785 -1.05902,1.06189 0,0.66553 -2.26412,0.94969 -6.06564,0.76129 -5.46263,-0.27073 -6.25647,-0.0532 -7.98533,2.1881 -1.86658,2.41986 -1.9194,5.557 -1.90883,113.37986 0.006,60.99012 0.28354,110.61845 0.61681,110.28518 0.33328,-0.33327 1.55929,-0.0756 2.72447,0.5726 1.16519,0.64821 4.48102,1.0408 7.36852,0.87242 3.8497,-0.22449 5.27106,0.0519 5.32895,1.03626 0.0594,1.01034 0.20371,1.03319 0.58333,0.0924 0.27741,-0.6875 2.01533,-1.25 3.86204,-1.25 z m 72.81776,-0.44907 c 0.39752,-1.03592 0.0716,-1.26765 -1.14301,-0.81277 -1.48267,0.55526 -1.52427,0.42141 -0.32663,-1.05093 0.77545,-0.9533 0.92044,-1.68723 0.33334,-1.68723 -1.2758,0 -2.07306,2.05977 -1.45148,3.75 0.61781,1.68001 1.9047,1.58102 2.58778,-0.19907 z m 58.35853,-0.71742 c 0.66648,-0.55313 1.63953,-0.74133 2.16233,-0.41822 0.5359,0.3312 0.72224,-0.28557 0.42717,-1.41391 -0.71001,-2.71509 0.53586,-2.54012 1.77032,0.24862 0.91676,2.07103 0.93613,2.05115 0.24347,-0.25 -0.41388,-1.375 -0.998,-51.325 -1.29804,-111 -0.30005,-59.675 -0.64911,-108.59497 -0.7757,-108.71104 -0.12659,-0.11608 -1.21501,-1.12858 -2.41872,-2.25 -1.87142,-1.7435 -3.51262,-2.03896 -11.32569,-2.03896 -8.41193,0 -9.32041,0.19511 -11.44655,2.45827 l -2.30942,2.45827 -0.50984,107.85569 c -0.48782,103.19533 -0.431,107.97601 1.31478,110.64042 1.00355,1.5316 2.60843,3.07782 3.5664,3.43604 2.58739,0.96751 19.19677,0.14897 20.59949,-1.01518 z m 59.08045,0.28366 c 1.07579,-0.57574 2.16514,-0.83764 2.42079,-0.58199 0.68296,0.68296 0.6523,5.4111 0.72334,-111.53518 0.0632,-104.06306 -0.01,-108.60223 -1.78437,-111 -1.72028,-2.32435 -2.5286,-2.52012 -11.50468,-2.78632 -9.14251,-0.27114 -9.78647,-0.15425 -12.14527,2.20454 l -2.49087,2.49087 v 108.48644 c 0,71.2456 -0.34328,108.69859 -1,109.10447 -0.55,0.33992 -1,1.09658 -1,1.68146 0,0.62914 0.68904,0.50294 1.68723,-0.30902 1.48251,-1.20591 1.60524,-1.1538 1.01146,0.4295 -0.37168,0.99106 -0.29723,1.56798 0.16544,1.28203 0.46268,-0.28595 1.59037,0.0282 2.50599,0.69806 2.03659,1.49001 18.55647,1.36281 21.41094,-0.16486 z m -121.78106,-1.11717 c 1.1,-1.1 2,-2.70156 2,-3.55902 0,-0.85746 0.3375,-1.35045 0.75,-1.09553 0.81265,0.5022 0.38014,-195.83849 -0.45954,-208.6094 -0.65291,-9.93044 -2.45688,-11.73605 -11.72532,-11.73605 -3.5472,0 -6.737,-0.53079 -7.51184,-1.25 -0.8036,-0.74589 -1.08913,-0.78963 -0.70803,-0.10847 0.40913,0.73123 -0.59122,1.28512 -2.78315,1.54101 -1.99128,0.23247 -3.17753,0.004 -2.83747,-0.54604 0.3214,-0.52003 0.0935,-0.64213 -0.50651,-0.27132 -0.59998,0.37081 -1.18479,1.45284 -1.29957,2.40451 -0.11478,0.95167 -0.37235,50.82712 -0.57238,110.83432 l -0.3637,109.10402 2.08134,2.64598 c 2.00099,2.54386 2.46451,2.64599 12.00875,2.64599 8.59409,0 10.19604,-0.26862 11.92742,-2 z m 126.68311,-1.1875 c -0.31922,-0.79773 -0.55618,-0.56078 -0.60416,0.60417 -0.0434,1.05416 0.19293,1.64479 0.52522,1.3125 0.33229,-0.33229 0.36781,-1.1948 0.0789,-1.91667 z m -157.02083,-5.0625 c -0.27741,-0.6875 -0.50439,-0.125 -0.50439,1.25 0,1.375 0.22698,1.9375 0.50439,1.25 0.27741,-0.6875 0.27741,-1.8125 0,-2.5 z m 65.67157,1.3492 c -0.45862,-0.34236 -1.17135,-1.02973 -1.58385,-1.5275 -0.4125,-0.49777 -0.75,0.0558 -0.75,1.23025 0,1.53742 0.44346,1.96511 1.58385,1.5275 0.87111,-0.33428 1.20861,-0.88789 0.75,-1.23025 z m -92.95229,-0.65114 c 0.34149,-0.88992 0.17385,-1.29132 -0.39301,-0.94098 -0.5437,0.33602 -0.98855,1.0344 -0.98855,1.55194 0,1.43843 0.71677,1.12146 1.38156,-0.61096 z m 126.61844,-0.44806 c 0,-0.55 -0.47656,-1 -1.05902,-1 -0.58246,0 -0.7809,0.45 -0.44098,1 0.33992,0.55 0.81648,1 1.05902,1 0.24254,0 0.44098,-0.45 0.44098,-1 z m -96.2502,-156.75 c -0.14751,-28.4625 -0.2682,-5.175 -0.2682,51.75 0,56.925 0.12069,80.2125 0.2682,51.75 0.14751,-28.4625 0.14751,-75.0375 0,-103.5 z m 186.93331,112.5625 c -0.31922,-0.79773 -0.55618,-0.56078 -0.60416,0.60417 -0.0434,1.05416 0.19293,1.64479 0.52522,1.3125 0.33229,-0.33229 0.36781,-1.1948 0.0789,-1.91667 z M 218.91251,228.40145 c -0.27741,-0.6875 -0.50439,-0.125 -0.50439,1.25 0,1.375 0.22698,1.9375 0.50439,1.25 0.27741,-0.6875 0.27741,-1.8125 0,-2.5 z m -27.69291,-2.25 c 0,-0.55 -0.43621,-0.325 -0.96937,0.5 -0.53316,0.825 -0.96937,1.95 -0.96937,2.5 0,0.55 0.43621,0.325 0.96937,-0.5 0.53316,-0.825 0.96937,-1.95 0.96937,-2.5 z m -1.46937,-1.5 c 0.33992,-0.55 0.14148,-1 -0.44098,-1 -0.58246,0 -1.05902,0.45 -1.05902,1 0,0.55 0.19844,1 0.44098,1 0.24254,0 0.7191,-0.45 1.05902,-1 z m -1,-4 c -0.33992,-0.55 -1.06803,-1 -1.61803,-1 -0.55,0 -0.72189,0.45 -0.38197,1 0.33992,0.55 1.06803,1 1.61803,1 0.55,0 0.72189,-0.45 0.38197,-1 z m 41.22917,-0.60417 c -0.33229,-0.33229 -1.1948,-0.36781 -1.91667,-0.0789 -0.79773,0.31922 -0.56078,0.55618 0.60417,0.60416 1.05416,0.0434 1.64479,-0.19293 1.3125,-0.52522 z m -62,-1 c -0.33229,-0.33229 -1.1948,-0.36781 -1.91667,-0.0789 -0.79773,0.31922 -0.56078,0.55618 0.60417,0.60416 1.05416,0.0434 1.64479,-0.19293 1.3125,-0.52522 z m -5.22917,-2.39583 c 0.33992,-0.55 0.16803,-1 -0.38197,-1 -0.55,0 -1.27811,0.45 -1.61803,1 -0.33992,0.55 -0.16803,1 0.38197,1 0.55,0 1.27811,-0.45 1.61803,-1 z m 5.22917,0.39583 c -0.33229,-0.33229 -1.1948,-0.36781 -1.91667,-0.0789 -0.79773,0.31922 -0.56078,0.55618 0.60417,0.60416 1.05416,0.0434 1.64479,-0.19293 1.3125,-0.52522 z m 58.27083,0.16319 c 0,-0.24254 -0.45,-0.7191 -1,-1.05902 -0.55,-0.33992 -1,-0.14148 -1,0.44098 0,0.58246 0.45,1.05902 1,1.05902 0.55,0 1,-0.19844 1,-0.44098 z M 117.59531,177.10832 c -0.32569,-0.84872 -0.80663,-1.32866 -1.06875,-1.06653 -0.26213,0.26213 -0.17998,0.95654 0.18255,1.54313 0.98605,1.59546 1.56238,1.28551 0.8862,-0.4766 z"
       id="path1104"
       sodipodi:nodetypes="csccsscsccsscsscssssccsssssssssssssssssssssssssssssssssssssssssssssssssssssssssssssssssssssssssscccssssssssssssssssssssssssssssscssssssscsscsssssssssssssssscssscsssssssssssssssssssssssssssssssssssssssssssssssssssssssssssssssssssssssssssssssssss" />
  </g>
</svg>
