<?xml version="1.0" encoding="UTF-8" standalone="no"?>
<!-- Created with Inkscape (http://www.inkscape.org/) -->

<svg
   version="1.1"
   id="svg836"
   width="360.27805"
   height="98.452408"
   viewBox="0 0 360.27804 98.452408"
   sodipodi:docname="tapar.svg"
   inkscape:version="1.1.2 (b8e25be833, 2022-02-05)"
   xmlns:inkscape="http://www.inkscape.org/namespaces/inkscape"
   xmlns:sodipodi="http://sodipodi.sourceforge.net/DTD/sodipodi-0.dtd"
   xmlns="http://www.w3.org/2000/svg"
   xmlns:svg="http://www.w3.org/2000/svg">
  <defs
     id="defs840" />
  <sodipodi:namedview
     id="namedview838"
     pagecolor="#505050"
     bordercolor="#ffffff"
     borderopacity="1"
     inkscape:pageshadow="0"
     inkscape:pageopacity="0"
     inkscape:pagecheckerboard="1"
     showgrid="false"
     fit-margin-top="0"
     fit-margin-left="0"
     fit-margin-right="0"
     fit-margin-bottom="0"
     inkscape:zoom="0.96063043"
     inkscape:cx="220.16792"
     inkscape:cy="-71.827831"
     inkscape:window-width="1366"
     inkscape:window-height="705"
     inkscape:window-x="-8"
     inkscape:window-y="-8"
     inkscape:window-maximized="1"
     inkscape:current-layer="g842" />
  <g
     inkscape:groupmode="layer"
     inkscape:label="Image"
     id="g842"
     transform="translate(-256.9277,-17.665957)">
    <path
       style="fill:#000000"
       d="m 558.84309,115.91699 c -31.40537,-0.11042 -67.10356,-0.21946 -79.32932,-0.2423 -12.22577,-0.0228 -49.05503,-0.0946 -81.84281,-0.15935 -32.78777,-0.0648 -77.53836,-0.14491 -99.44576,-0.17804 -28.82543,-0.0436 -40.00968,-0.41652 -40.47603,-1.34967 -0.35443,-0.70918 -0.21801,-1.10333 0.30324,-0.87588 0.52119,0.22746 0.85361,-0.73548 0.73869,-2.13986 -0.15066,-1.84099 -0.39904,-2.1308 -0.89031,-1.03871 -0.54551,1.21268 -0.73455,1.16349 -0.9481,-0.24668 -0.14629,-0.96881 0.36491,-2.11311 1.13694,-2.54305 0.77201,-0.42992 1.34264,-1.20945 1.26805,-1.73231 -0.12281,-0.86092 1.53773,-3.91111 6.45453,-11.856143 0.94277,-1.523416 1.47787,-2.097713 1.18911,-1.276217 -0.34834,0.990987 -0.16934,1.196914 0.53187,0.611919 0.58129,-0.484945 0.76596,-1.230459 0.41036,-1.656701 -0.35559,-0.426244 0.25264,-2.181929 1.3516,-3.901517 l 1.99812,-3.126538 2.58522,1.641985 c 1.644,1.044186 2.03799,1.109217 1.08215,0.17863 -1.06384,-1.035748 -1.21384,-1.704648 -0.51334,-2.289035 0.54435,-0.454119 0.81152,-1.555459 0.59372,-2.447409 -0.84597,-3.464399 -0.6128,-4.406774 0.86545,-3.498349 0.98514,0.605378 1.82156,0.494774 2.72641,-0.360558 1.07397,-1.015191 1.01237,-1.091284 -0.34767,-0.429383 -1.06527,0.518441 -1.7267,0.287538 -1.86037,-0.649445 -0.11407,-0.799644 0.23809,-1.517443 0.78257,-1.595118 0.54449,-0.07767 0.8984,-0.783168 0.78648,-1.567775 -0.27473,-1.925732 1.26534,-3.082466 2.35883,-1.77171 0.52477,0.629043 0.41651,0.853664 -0.26743,0.554881 -1.27221,-0.555779 -0.94978,1.297226 0.53168,3.055797 0.52229,0.619954 0.71465,1.728901 0.42752,2.464323 -0.40944,1.048574 -0.28024,1.039377 0.59859,-0.04256 0.87933,-1.082566 0.81932,-1.652916 -0.27869,-2.648164 -0.88472,-0.801959 -1.07166,-1.541805 -0.5083,-2.011776 0.49008,-0.40885 0.58823,-1.62181 0.21813,-2.695483 -0.43822,-1.271273 0.38497,-3.407066 2.36022,-6.123674 1.66823,-2.294357 2.75786,-3.450441 2.42143,-2.569092 -0.47957,1.2563 -0.33515,1.335598 0.66861,0.367082 0.88875,-0.857551 4.20269,-1.323106 10.83558,-1.52224 5.2554,-0.157778 8.92646,0.08488 8.15792,0.539251 -0.76853,0.454372 0.70901,0.373644 3.28342,-0.179386 2.5744,-0.55303 9.55487,-1.009672 15.51217,-1.014767 5.95727,-0.0051 13.08333,-0.155524 15.83566,-0.334302 2.75234,-0.178778 7.03887,-0.401296 9.52563,-0.494479 2.48678,-0.09318 7.70973,-0.365256 11.60658,-0.604597 3.89684,-0.239351 10.45923,-0.440327 14.58308,-0.446621 4.12385,-0.0063 8.16672,-0.102816 8.98413,-0.214488 0.81745,-0.111562 3.30488,-0.200083 5.52766,-0.196476 3.28644,0.0053 3.6924,0.20552 2.17312,1.071557 -1.07264,0.611434 -1.26489,1.00914 -0.45139,0.933847 0.77933,-0.07208 2.33681,0.489919 3.46109,1.248988 1.22304,0.825749 1.97861,0.920834 1.88103,0.23672 -0.0896,-0.628883 -0.60854,-1.079862 -1.15303,-1.002186 -1.66993,0.238228 -1.466,-2.406218 0.35446,-4.596125 1.75819,-2.115024 2.19453,-4.469516 0.57844,-3.121308 -0.57295,0.477988 -0.69204,-0.114148 -0.33395,-1.660459 0.30613,-1.321863 1.01292,-2.37039 1.57065,-2.330053 0.55774,0.04034 0.66011,-0.769742 0.22752,-1.800175 -0.4526,-1.078075 -0.29238,-1.944002 0.37732,-2.039539 0.65702,-0.09373 0.77186,-0.659985 0.26374,-1.30028 -0.49506,-0.623836 0.2635,-0.391134 1.68572,0.517113 l 2.58582,1.651362 -2.06731,-2.389388 c -1.55763,-1.800323 -1.79828,-2.613821 -0.97609,-3.299732 0.73957,-0.61697 0.8927,-0.455902 0.47518,0.499811 -0.41724,0.955089 -0.26434,1.116757 0.47379,0.50098 0.5994,-0.500043 0.85437,-1.380276 0.56662,-1.956079 -0.66897,-1.338589 1.62313,-4.98562 3.28213,-5.222289 0.69573,-0.09925 1.33226,0.291329 1.41451,0.867951 0.0823,0.576623 0.59914,0.673344 1.14863,0.214937 0.69902,-0.583156 0.56859,-1.02153 -0.43428,-1.459647 -1.87284,-0.818164 1.21385,-5.376528 5.61249,-8.288441 2.51732,-1.66648 3.56521,-1.891305 5.51675,-1.183602 2.2618,0.820203 2.30233,0.77452 0.66278,-0.746919 -1.57914,-1.465379 -1.57482,-1.582787 0.0453,-1.226081 0.9854,0.216968 2.0066,-0.09756 2.26932,-0.698947 0.30183,-0.690912 4.20827,-1.4124 10.61159,-1.959884 5.57366,-0.47655 10.92607,-0.958649 11.89424,-1.071332 0.96818,-0.112663 1.60372,0.153609 1.41231,0.591744 -0.1914,0.438132 1.16759,0.580402 3.01998,0.316144 3.92834,-0.560406 5.63884,0.319452 3.74977,1.928822 -0.80892,0.689149 -0.86489,1.069142 -0.1437,0.975704 0.6496,-0.08459 1.39298,-0.63781 1.65182,-1.230304 0.25884,-0.592493 0.9161,-1.140812 1.46058,-1.218487 0.54449,-0.07768 0.78063,0.337992 0.52477,0.923697 -0.26264,0.601187 0.14205,0.726722 0.92942,0.288269 0.77567,-0.431956 2.28652,0.0071 3.40416,0.989385 1.10523,0.971316 2.28899,1.532886 2.63055,1.247932 0.34157,-0.284946 1.54345,0.248714 2.67086,1.185917 2.36574,1.966613 1.71818,2.486911 -0.77085,0.619373 -1.46623,-1.100114 -1.78686,-1.051616 -2.68246,0.405804 -0.85235,1.387049 -0.7434,1.502802 0.67237,0.714383 1.1549,-0.643139 1.51702,-0.545947 1.14436,0.307115 -0.36742,0.841038 -0.0216,0.956391 1.06059,0.35376 0.92371,-0.514389 1.41475,-0.456941 1.15604,0.135261 -0.24736,0.566218 0.37583,0.911721 1.38485,0.767776 1.00902,-0.143944 1.49321,-0.683816 1.07597,-1.199701 -1.49405,-1.847314 3.12993,1.414959 5.42508,3.827461 1.68975,1.776132 2.04765,2.708552 1.28416,3.345493 -0.66166,0.551975 -0.8548,0.416759 -0.51519,-0.360657 0.29884,-0.684029 0.11921,-1.183194 -0.39915,-1.109246 -0.51837,0.07396 -1.09529,0.802953 -1.28204,1.620007 -0.25019,1.094605 0.26892,1.283183 1.97237,0.716618 2.4197,-0.804784 5.50224,1.890228 4.57909,4.003393 -0.25349,0.580255 0.0372,0.98395 0.64594,0.897107 0.60876,-0.08685 0.91314,0.285461 0.67641,0.827353 -0.23673,0.541886 0.0266,1.072516 0.58516,1.17918 0.55857,0.106654 2.04039,3.684175 3.29295,7.950036 2.64928,9.022702 3.63482,10.273553 7.10679,9.02 l 2.53186,-0.914119 -2.26558,1.81365 -2.26557,1.813653 2.80358,0.187485 c 5.15242,0.34456 8.39208,0.325872 7.05777,-0.04071 -0.72639,-0.199563 -1.17128,-0.704889 -0.98865,-1.122951 0.18263,-0.418063 -1.28116,-0.343156 -3.25287,0.166472 -4.11603,1.063872 -4.07757,0.127229 0.0512,-1.245977 1.5177,-0.504782 6.02974,-0.667962 10.02675,-0.362628 3.99701,0.305343 8.03468,0.421033 8.9726,0.2571 0.93791,-0.163904 2.02387,0.0838 2.41322,0.550513 0.38935,0.466712 1.8195,0.394754 3.17811,-0.159919 1.6189,-0.660929 2.29948,-0.617701 1.97484,0.125436 -0.29726,0.680451 0.17297,0.85984 1.17599,0.448564 2.54261,-1.042597 14.89505,-0.03976 15.07532,1.223895 0.0871,0.610697 0.61691,1.423746 1.1773,1.806773 0.58582,0.400418 0.66421,0.241253 0.18442,-0.374471 -1.17511,-1.508087 2.44697,-3.037463 4.99395,-2.108626 1.15044,0.419541 4.04677,0.687282 6.4363,0.594969 2.38953,-0.09231 4.3534,-0.106073 4.36418,-0.03058 0.0107,0.07543 1.14841,0.08436 2.52812,0.01971 4.10182,-0.192185 17.58591,0.203457 19.27303,0.565495 0.85967,0.18448 3.57442,0.243585 6.03279,0.131345 4.96539,-0.226715 7.25824,0.745246 7.50293,3.180576 0.11666,1.161164 -0.23191,1.032583 -1.22916,-0.453393 -1.48103,-2.206826 -4.62927,-2.300577 -6.87736,-0.204788 -0.98821,0.921255 -0.48968,0.949745 1.90966,0.109143 2.4819,-0.869528 3.10711,-0.817381 2.65334,0.221323 -0.37168,0.850799 -0.22827,1.054093 0.38354,0.543705 0.99981,-0.834101 1.60969,0.138403 3.58957,5.723852 0.99956,2.819897 1.24284,2.972803 2.1178,1.331109 0.85625,-1.606578 1.59164,-0.813192 5.49614,5.92967 2.47918,4.281433 4.56196,8.600204 4.62838,9.597287 0.0768,1.153657 0.51231,1.4949 1.19753,0.938461 0.60965,-0.495061 0.58387,-0.05208 -0.0594,1.021183 -0.6249,1.042563 -0.80912,2.14097 -0.40938,2.440901 0.39973,0.299932 0.63994,-0.06352 0.53378,-0.80765 -0.37553,-2.632429 1.9001,0.295344 6.69843,8.618045 5.47203,9.491233 5.37002,9.247593 3.57893,8.548213 -1.06971,-0.41768 -1.05161,-0.29078 0.0906,0.63457 1.52568,1.23608 2.87044,7.69091 1.60208,7.68994 -0.41672,-1.9e-4 -26.45297,-0.0909 -57.85834,-0.20135 z m 54.17607,-7.43507 c -0.42868,-0.74466 -0.6298,-0.47661 -0.51277,0.68343 0.10591,1.04972 0.42328,1.60106 0.70531,1.22517 0.28203,-0.37589 0.19539,-1.23477 -0.19258,-1.9086 z m -21.65151,3.67798 c -0.37589,-0.28203 -1.23478,-0.19539 -1.90861,0.19258 -0.74465,0.42868 -0.47661,0.6298 0.68345,0.51278 1.04972,-0.10592 1.60106,-0.42328 1.22516,-0.70532 z m -17.89629,0.0868 c 0.97979,-0.88859 0.5662,-0.9233 -1.53355,-0.12873 -3.52392,1.33352 -4.23327,2.01287 -1.70335,1.63131 1.04247,-0.1568 2.49901,-0.83338 3.2369,-1.50258 z m 38.78126,-9.02172 c -0.11652,-0.81673 -0.58309,-1.432 -1.03683,-1.36727 -0.9887,0.14104 -0.88991,1.54234 0.16453,2.33348 1.04855,0.78672 1.11229,0.71611 0.8723,-0.96621 z m -90.75261,9.42267 c 0.26677,-0.61066 -0.15432,-0.71993 -0.98705,-0.25618 -1.62118,0.90278 -1.83374,1.65714 -0.40973,1.45399 0.51235,-0.0731 1.14091,-0.61211 1.39678,-1.19781 z m -6.28197,0.21351 c -0.72334,-0.17818 -1.08875,-0.84222 -0.81202,-1.47567 0.29988,-0.68644 0.0762,-0.79551 -0.55377,-0.26999 -1.24275,1.03677 -0.17445,2.67196 1.51307,2.31598 0.83591,-0.17631 0.79405,-0.33843 -0.14723,-0.57033 z m -4.38985,-0.72292 c 0.74143,-0.64432 0.90257,-1.10794 0.35808,-1.03026 -0.54449,0.0776 -1.59661,0.66839 -2.33804,1.31273 -0.74144,0.64432 -0.90257,1.10794 -0.35808,1.03026 0.54448,-0.0776 1.5966,-0.6684 2.33804,-1.31273 z m 17.60736,-2.11198 c -0.37588,-0.28203 -1.23476,-0.19539 -1.90859,0.19258 -0.74466,0.42868 -0.47661,0.6298 0.68343,0.51277 1.04973,-0.1059 1.60106,-0.42326 1.22517,-0.70531 z m -21.7085,1.68692 c -0.0776,-0.54449 -0.61301,-0.92268 -1.18964,-0.84042 -0.57662,0.0823 -0.70952,0.55578 -0.29533,1.05226 0.41419,0.49648 0.94952,0.87466 1.18964,0.84042 0.24011,-0.0343 0.37301,-0.50777 0.29533,-1.05226 z M 607.50119,94.138271 c -0.40344,-0.960985 -0.85236,-1.730296 -0.9976,-1.709577 -0.14524,0.02072 -0.36113,0.884871 -0.47977,1.920333 -0.12251,1.069341 0.30842,1.807904 0.99761,1.709587 0.68914,-0.09831 0.8964,-0.927918 0.47976,-1.920343 z M 468.18956,112.56006 c -0.37588,-0.28204 -1.23476,-0.1954 -1.9086,0.19257 -0.74465,0.42869 -0.47661,0.6298 0.68344,0.51278 1.04972,-0.10592 1.60106,-0.42328 1.22517,-0.70531 z M 602.88077,91.816157 c -0.0776,-0.544488 -0.54743,-0.651093 -1.04392,-0.236904 -0.49648,0.414188 -0.98058,0.207061 -1.07579,-0.460333 -0.0952,-0.667373 -0.37306,-0.946894 -0.61745,-0.621173 -0.72299,0.963592 1.18886,3.717883 2.07029,2.982552 0.44445,-0.370787 0.74455,-1.119655 0.66687,-1.664142 z m -144.025,20.665473 c -2.88837,-0.78124 -4.45143,-0.55825 -2.47495,0.35306 0.89203,0.4113 2.28661,0.628 3.09908,0.48156 0.97402,-0.17552 0.76142,-0.45987 -0.62413,-0.83462 z M 601.92576,86.48922 c -0.34829,-0.261322 -0.82346,0.367084 -1.05595,1.396454 -0.33596,1.487558 -0.20603,1.585046 0.63325,0.475121 0.58077,-0.768049 0.77099,-1.610263 0.4227,-1.871575 z M 416.5709,111.84284 c -0.37588,-0.28203 -1.23476,-0.19539 -1.90859,0.19257 -0.74466,0.4287 -0.47661,0.62981 0.68343,0.5128 1.04973,-0.10591 1.60106,-0.42329 1.22517,-0.70532 z m -6.36354,-2.12257 c -0.37588,-0.28203 -1.23477,-0.19539 -1.9086,0.19259 -0.74465,0.42868 -0.47661,0.62979 0.68344,0.51278 1.04972,-0.10591 1.60106,-0.42328 1.22517,-0.70532 z M 599.6289,80.739299 c -0.44229,-0.794217 -0.98619,-1.201425 -1.20866,-0.904903 -0.22248,0.296522 -0.0431,0.97236 0.39866,1.501882 1.20149,1.440211 1.72827,1.051975 0.81,-0.596979 z M 356.54986,112.26559 c -0.71979,-0.17754 -1.83351,-0.019 -2.47494,0.35308 -0.64143,0.37172 -0.0525,0.51697 1.3087,0.32278 1.36123,-0.19418 1.88603,-0.49831 1.16624,-0.67586 z m -59.54493,0.41143 c -0.72335,-0.17817 -1.08876,-0.84223 -0.81204,-1.47567 0.29988,-0.68645 0.0762,-0.79551 -0.55376,-0.26999 -1.24275,1.03676 -0.17446,2.67195 1.51307,2.31598 0.83592,-0.17631 0.79405,-0.33843 -0.14722,-0.57033 z m 3.68391,-2.54368 c -0.71979,-0.17754 -1.83351,-0.019 -2.47494,0.35307 -0.64144,0.37172 -0.0525,0.51697 1.3087,0.32278 1.36122,-0.19418 1.88602,-0.49832 1.16624,-0.67585 z m -30.9418,-7.50743 c -0.26843,-0.5371 -1.08205,-0.89182 -1.80803,-0.78826 -0.72598,0.10357 -1.40795,0.67165 -1.51547,1.26239 -0.10752,0.59075 0.70607,0.94548 1.80801,0.78828 1.10196,-0.1572 1.7839,-0.72529 1.51549,-1.26241 z M 535.8156,60.710447 c -0.0298,-0.208767 -1.19824,-0.433601 -2.59658,-0.499618 -1.39834,-0.06603 -2.48769,0.263674 -2.42079,0.732646 0.0669,0.468982 1.23537,0.693815 2.59659,0.499628 1.36121,-0.194188 2.45057,-0.52388 2.42078,-0.732656 z M 482.16043,46.160291 c -1.06508,-0.732817 -1.17462,-0.556589 -0.48035,0.772704 0.49467,0.947122 1.06607,2.456552 1.2698,3.354288 0.20373,0.897746 0.41989,0.550033 0.48036,-0.772704 0.0605,-1.322726 -0.51095,-2.832156 -1.26981,-3.354288 z m -81.71124,13.746802 c -1.45188,-1.089362 -2.60031,0.07649 -1.44248,1.464376 0.4485,0.537607 1.22898,0.632482 1.73443,0.210824 0.61653,-0.514348 0.52046,-1.065645 -0.29192,-1.675205 z m -16.32424,-0.4024 c -0.89203,-0.411303 -2.73023,-0.551352 -4.0849,-0.311229 l -2.46302,0.436622 2.58802,0.439547 c 1.4234,0.241749 3.26161,0.381798 4.08489,0.31122 1.33056,-0.114055 1.31667,-0.211369 -0.12498,-0.87613 z m -7.28328,0.428728 c -0.37589,-0.282032 -1.23477,-0.195396 -1.90862,0.192478 -0.74465,0.428692 -0.47661,0.629803 0.68344,0.512789 1.04972,-0.105912 1.60106,-0.423286 1.22517,-0.705317 z m 12.38713,-1.825804 c -0.71979,-0.177546 -1.83352,-0.0187 -2.47495,0.353068 -0.64142,0.371724 -0.0525,0.516978 1.30871,0.32279 1.36122,-0.194188 1.88603,-0.498323 1.16624,-0.675858 z m -103.30031,6.974911 c -0.0805,-0.564169 -0.72758,-0.06049 -1.43798,1.11929 -1.27396,2.115673 -1.28759,2.116809 -0.99586,0.08257 0.28795,-2.007912 0.26436,-2.007284 -0.89196,0.02352 -0.65324,1.147286 -0.87668,2.458798 -0.49654,2.914479 0.78851,0.945192 4.04465,-2.581471 3.82233,-4.139893 z m 66.58882,-5.719554 c -0.37589,-0.282032 -1.23478,-0.195395 -1.90862,0.192478 -0.74465,0.428692 -0.47661,0.629803 0.68344,0.512789 1.04973,-0.105912 1.60106,-0.423286 1.22517,-0.705318 z m -42.71025,5.082808 c -0.37589,-0.282031 -1.23477,-0.195395 -1.90862,0.192478 -0.74465,0.428692 -0.47661,0.629803 0.68344,0.512789 1.04972,-0.105911 1.60106,-0.423285 1.22517,-0.705316 z m -10.18223,-0.567678 c -0.37589,-0.282031 -1.23477,-0.195396 -1.90861,0.192478 -0.74466,0.428692 -0.47662,0.629803 0.68343,0.512789 1.04973,-0.105911 1.60106,-0.423286 1.22517,-0.705317 z m 16.68839,-3.390846 c -0.37589,-0.282031 -1.23478,-0.195396 -1.90862,0.192478 -0.74465,0.428692 -0.47661,0.629803 0.68344,0.512789 1.04973,-0.105911 1.60106,-0.423286 1.22517,-0.705317 z m -15.98086,1.269664 c -0.37589,-0.282031 -1.23478,-0.195395 -1.90862,0.192478 -0.74465,0.428692 -0.47661,0.629803 0.68344,0.512789 1.04973,-0.105911 1.60106,-0.423286 1.22517,-0.705317 z M 406.47494,42.188986 c -0.16586,-1.162628 -0.59205,-1.550497 -1.04312,-0.949329 -0.41946,0.559064 -0.39426,1.458085 0.056,1.997834 1.14571,1.373339 1.30799,1.200952 0.9871,-1.048505 z m 65.62445,-12.911675 c -0.42993,-0.772019 -1.23405,-1.339139 -1.78695,-1.260263 -0.57945,0.08266 -0.39349,0.697977 0.43897,1.452563 0.79434,0.720035 1.59847,1.287153 1.78695,1.260264 0.18848,-0.02689 -0.009,-0.680535 -0.43897,-1.452564 z m -58.1954,5.307168 c -0.0361,-0.253088 -1.13728,-0.802901 -2.44707,-1.221811 -2.28685,-0.731405 -2.29637,-0.711399 -0.24013,0.503772 2.25066,1.330066 2.79528,1.475589 2.6872,0.718039 z m -4.60039,-3.924814 c -0.0777,-0.544488 -0.33768,-0.961952 -0.57779,-0.927699 -0.24011,0.03426 -0.64834,0.547046 -0.90717,1.13954 -0.25885,0.592493 10e-4,1.009959 0.57778,0.927699 0.57662,-0.08226 0.98485,-0.595053 0.90718,-1.13954 z m 182.07272,37.158749 c -0.11651,-0.816732 -0.0368,-1.509943 0.17723,-1.54047 0.214,-0.03053 0.74082,0.57615 1.17076,1.34817 0.42992,0.772021 0.35015,1.465233 -0.17724,1.54047 -0.5274,0.07524 -1.05423,-0.531439 -1.17075,-1.34817 z M 272.02004,83.736095 c -0.42165,-0.505437 -0.32678,-1.285928 0.21083,-1.734428 1.38787,-1.157831 2.55373,-0.0094 1.46437,1.442487 -0.60955,0.812409 -1.16085,0.90848 -1.6752,0.291911 z"
       id="path1104"
       sodipodi:nodetypes="sssssssscssssssscssssssssssssssssssssssssssssscsssssssssssssscssssssssssssssssssssssssssssssssssssssssssssssscccsssssssssssssssssssssssssssssssssssssssssssssssssssscsssssssssssssssssssssssssssssssssssssssssssssssssssssssssssssssssssssssssssssssssssssssssssssssssssssssscsssssssssssssssssssscsscccssccccscccssccccsccssssssssssssssssssssssssssss" />
  </g>
</svg>
